<?xml version="1.0" standalone="no"?>
<!DOCTYPE svg PUBLIC "-//W3C//DTD SVG 1.1//EN" "http://www.w3.org/Graphics/SVG/1.1/DTD/svg11.dtd" >
<!--
2013-9-30: Created.
-->
<svg>
<metadata>
Created by iconfont
</metadata>
<defs>

<font id="iconfont" horiz-adv-x="1024" >
  <font-face
    font-family="iconfont"
    font-weight="500"
    font-stretch="normal"
    units-per-em="1024"
    ascent="896"
    descent="-128"
  />
    <missing-glyph />
    
    <glyph glyph-name="yousanjiaoxing" unicode="&#58948;" d="M325.456896-50.27968M882.05824-50.27968M236.027904-65.161472M960.132096-65.161472M154.215424-64.16M816.575488 302.208768 209.619968 748.929792 209.619968-145.022208ZM871.471104-64.16"  horiz-adv-x="1024" />

    
    <glyph glyph-name="search" unicode="&#58922;" d="M511.609097-65.61925399999996M589.980026 741.356944c-119.990838 119.990838-314.535673 119.990838-434.526511 0s-119.990838-314.535673 0-434.526511c109.048625-109.048625 279.666514-118.980835 399.945925-29.822213L894.373711-61.967074000000025l64.403822 64.403822L619.802238 341.41204300000004C708.961884 461.691453 699.028651 632.308319 589.980026 741.356944zM547.528168 349.282291c-96.54587-96.54587-253.077949-96.54587-349.623819 0s-96.54587 253.077949 0 349.623819 253.077949 96.54587 349.623819 0S644.074038 445.828161 547.528168 349.282291z"  horiz-adv-x="1024" />

    
    <glyph glyph-name="ullist" unicode="&#59294;" d="M96 640l768 0C881.664 640 896 654.336 896 672S881.664 704 864 704l-768 0C78.336 704 64 689.664 64 672S78.336 640 96 640zM864 384l-768 0C78.336 384 64 369.664 64 352S78.336 320 96 320l768 0C881.664 320 896 334.336 896 352S881.664 384 864 384zM864 64l-768 0C78.336 64 64 49.66399999999999 64 32S78.336 0 96 0l768 0c17.664 0 32 14.336 32 32S881.664 64 864 64z"  horiz-adv-x="1024" />

    
    <glyph glyph-name="arrow_right" unicode="&#58911;" d="M751.552 344.06399999999996l-399.232-399.232c-22.08-22.08-57.792-22.08-79.872 0-22.016 22.016-22.08 57.792 0 79.872l359.296 359.296-359.296 359.296c-22.016 22.016-22.08 57.792 0 79.872s57.792 22.016 79.872 0l399.232-399.232c22.016-22.08 22.016-57.792 0-79.872z"  horiz-adv-x="1024" />

    
    <glyph glyph-name="arrow_left" unicode="&#58912;" d="M272.448 423.936l399.232 399.232c22.08 22.08 57.792 22.08 79.872 0 22.016-22.016 22.08-57.792 0-79.872l-359.296-359.296 359.296-359.296c22.016-22.016 22.08-57.792 0-79.872s-57.792-22.016-79.872 0l-399.232 399.232c-22.016 22.08-22.016 57.792 0 79.872z"  horiz-adv-x="1024" />

    
    <glyph glyph-name="close" unicode="&#58951;" d="M156.067114 678.062837l61.86318 61.86318 649.988128-649.988128-61.86318-61.86318-649.988128 649.988128ZM806.062428 739.932886l61.86318-61.86318-649.988128-649.988128-61.86318 61.86318 649.988128 649.988128Z"  horiz-adv-x="1024" />

    
    <glyph glyph-name="refresh" unicode="&#58923;" d="M915.2 112l-77.44 72.96A371.2 371.2 0 0 1 896 384 384 384 0 0 1 128 384a384 384 0 0 1 384-378.88v64A320 320 0 0 0 192 384a320 320 0 0 0 640 0 308.48 308.48 0 0 0-41.6-154.88l-71.68 67.2a16 16 0 0 1-26.24-7.68l-64-262.4a16 16 0 0 1 19.84-18.56l256 77.44a16 16 0 0 1 10.88 26.88z"  horiz-adv-x="1024" />

    
    <glyph glyph-name="bianji" unicode="&#58880;" d="M121.018182-16.290909h786.618182V-81.454545H121.018182zM176.872727 114.036364H186.181818l204.8 65.163636c4.654545 0 9.309091 4.654545 13.963637 9.309091l465.454545 465.454545c4.654545 4.654545 9.309091 13.963636 9.309091 23.272728s-4.654545 18.618182-9.309091 23.272727l-144.290909 144.290909c-13.963636 13.963636-32.581818 13.963636-46.545455 0l-465.454545-465.454545c-4.654545-4.654545-4.654545-9.309091-9.309091-13.963637L139.636364 160.581818c-4.654545-13.963636 0-23.272727 9.309091-32.581818 9.309091-9.309091 18.618182-13.963636 27.927272-13.963636z m93.090909 223.418181l432.872728 432.872728 97.745454-97.745455-432.872727-432.872727-139.636364-41.890909 41.890909 139.636363z"  horiz-adv-x="1024" />

    
    <glyph glyph-name="dingdan" unicode="&#58904;" d="M300 433.6h424.8v-48H300v48zM300 222.4H560v-48H300v48zM818.4-85.6H205.6c-12.8 0-24.8 2.4-36.8 7.2-11.2 4.8-21.6 11.2-29.6 20-8.8 8.8-15.2 18.4-20 29.6-4.8 12-7.2 24-7.2 36.8V645.6c0 12.8 2.4 24.8 7.2 36.8 4.8 11.2 11.2 21.6 20 29.6 8.8 8.8 18.4 15.2 29.6 20 12 4.8 24 7.2 36.8 7.2h92.8v-47.2H205.6c-25.6 0-47.2-20.8-47.2-47.2v-637.6c0-25.6 20.8-47.2 47.2-47.2h612c25.6 0 47.2 20.8 47.2 47.2V645.6c0 25.6-20.8 47.2-47.2 47.2H725.6v47.2h92.8c12.8 0 24.8-2.4 36.8-7.2 11.2-4.8 21.6-11.2 29.6-20 8.8-8.8 15.2-18.4 20-29.6 4.8-12 7.2-24 7.2-36.8v-637.6c0-12.8-2.4-24.8-7.2-36.8-4.8-11.2-11.2-21.6-20-29.6-8.8-8.8-18.4-15.2-29.6-20-12-5.6-24-8-36.8-8zM747.2 598.4H276.8V752c0 32.8 26.4 59.2 59.2 59.2h60.8c21.6 43.2 66.4 71.2 116 71.2 49.6 0 94.4-28 116-71.2h60.8c32.8 0 59.2-26.4 59.2-59.2l-1.6-153.6z m-423.2 47.2h376.8V752c0 6.4-5.6 12-12 12H595.2l-5.6 16c-11.2 32.8-42.4 55.2-77.6 55.2-35.2 0-66.4-22.4-77.6-55.2l-5.6-16H335.2c-6.4 0-12-5.6-12-12v-106.4z"  horiz-adv-x="1024" />

    
    <glyph glyph-name="export" unicode="&#58908;" d="M140.82998676543212-42.719266324143064h744.8649919537726c27.774627235207902 0 50.499322120301564 22.72469488509366 50.499322120301564 50.499320739460735v176.74762534979425c0 15.149797050342714-10.099864700228474 25.249660369730368-25.249660369730368 25.249660369730368s-25.249660369730368-10.099864700228474-25.24966175057119-25.249660369730368v-176.74762534979425H140.82998676543212V752.6450477499311h744.8649919537726v-156.5478973301781c0-15.149797050342714 10.099864700228474-25.249660369730368 25.24966175057119-25.249660369730368s25.249660369730368 10.099864700228474 25.249660369730368 25.249660369730368v156.5478973301781c0 27.774627235207902-22.72469488509366 50.499322120301564-50.499322120301564 50.499320739460735H140.82998676543212c-27.774627235207902 0-50.499322120301564-22.72469488509366-50.499322120301564-50.499320739460735v-744.8649933346134c0-27.774627235207902 20.19972801961613-50.499322120301564 50.499322120301564-50.499320739460735zM691.2725908344311 161.80298488001858c5.049932350114237-5.049932350114237 12.624830184865184-7.574897834750945 17.674762534979426-7.574897834750945s12.624830184865184 2.524965484636708 17.674762534979426 7.574897834750945l201.99728710036538 201.99728710036538c2.524965484636708 2.524965484636708 5.049932350114237 5.049932350114237 5.049932350114237 7.574897834750945 2.524965484636708 5.049932350114237 2.524965484636708 12.624830184865184 0 20.19972801961613-2.524965484636708 2.524965484636708-2.524965484636708 5.049932350114237-5.049932350114237 7.574899215591769l-201.99728710036538 201.9972857195246c-10.099864700228474 10.099864700228474-25.249660369730368 10.099864700228474-35.34952506995885 0s-10.099864700228474-25.249660369730368 0-35.34952506995885l159.07286281481484-159.07286281481484H375.6518320702789c-15.149797050342714 0-25.249660369730368-10.099864700228474-25.249660369730368-25.249660369730368s10.099864700228474-25.249660369730368 25.249660369730368-25.24966175057119h474.6936215789669l-159.07286281481484-159.07286281481484c-10.099864700228474-10.099864700228474-10.099864700228474-25.249660369730368 0-35.34952506995885z"  horiz-adv-x="1024" />

    
    <glyph glyph-name="shouye" unicode="&#58933;" d="M234.057143 482.742857l321.828571 219.428572c51.2 36.571429 120.685714 32.914286 171.885715-3.657143l142.628571-106.057143c18.285714-14.628571 29.257143-36.571429 29.257143-58.514286v-497.371428c0-40.228571-32.914286-73.142857-73.142857-73.142858h-548.571429c-40.228571 0-73.142857 32.914286-73.142857 73.142858V420.571429c-3.657143 25.6 7.314286 47.542857 29.257143 62.171428zM804.571429-54.857143H219.428571c-80.457143 0-146.285714 65.828571-146.285714 146.285714V475.428571c0 47.542857 21.942857 91.428571 62.171429 117.028572l292.571428 201.142857c51.2 32.914286 117.028571 32.914286 164.571429 0l292.571428-201.142857c40.228571-25.6 62.171429-73.142857 62.171429-120.685714V91.428571c3.657143-80.457143-62.171429-146.285714-142.628571-146.285714zM168.228571 548.571429c-25.6-18.285714-40.228571-43.885714-40.228571-76.8V91.428571c0-51.2 40.228571-91.428571 91.428571-91.428571h585.142858c51.2 0 91.428571 40.228571 91.428571 91.428571V475.428571c0 29.257143-14.628571 58.514286-40.228571 76.8l-292.571429 201.142858c-29.257143 21.942857-73.142857 21.942857-102.4 0l-292.571429-204.8zM431.542857 237.714286h164.571429c14.628571 0 29.257143-10.971429 29.257143-29.257143 0-14.628571-10.971429-29.257143-29.257143-29.257143h-164.571429c-14.628571 0-29.257143 10.971429-29.257143 29.257143s10.971429 29.257143 29.257143 29.257143z"  horiz-adv-x="1024" />

    
    <glyph glyph-name="time" unicode="&#59144;" d="M896 384c0 212.1-171.9 384-384 384S128 596.1 128 384s171.9-384 384-384c87.1 0 166.8 29.6 231.2 78.4 2.6 3 4.4 6.8 4.4 11.1 0 9.4-7.6 17-17 17-4.9 0-9.2-1.9-12.3-5.2h-0.3c-57.6-42.4-128.6-67.8-205.6-67.8-192 0-347.7 155.7-347.7 347.8 0 192.1 155.7 347.7 347.7 347.7 192.1 0 347.7-155.7 347.7-347.7 0-58.7-13.8-113.9-39.4-162.4v-0.3c-0.5-1.6-1-3.2-1-4.9 0-9.4 7.6-17 17-17 7.3 0 13.5 4.7 15.8 11.2v-0.1C879.9 260.6 896 320.4 896 384zM662.3 266.8M509.1 360c-12.7-0.1-19.1 7.5-19.1 22.7-0.1 15.6 6.3 23.5 18.9 23.6l217 1.8c7.3 0.1 12.5-2.1 15.5-6.5s4.6-10 4.6-16.8c0-6.8-1.4-12.3-4.2-16.5s-8.1-6.4-15.7-6.4l-217-1.9zM488 648.7c-0.1 15.5 7.5 23.2 22.7 23.3 15.6 0.1 23.5-7.6 23.6-23l1.7-264.4c0.1-8.9-2.1-15.2-6.5-18.9-4.4-3.7-10-5.6-16.8-5.6-6.8 0-12.3 1.7-16.6 5.1-4.2 3.5-6.4 9.8-6.4 19.1L488 648.7z"  horiz-adv-x="1024" />

    
    <glyph glyph-name="chengshihehuoren" unicode="&#59004;" d="M520.5 831.2c14.8 0 28.9-5.9 39.5-16.5 10.6-10.6 16.5-24.7 16.5-39.5v-837.7H144.8V775.2c0 14.8 5.9 28.9 16.5 39.5C172 825.3 186 831.2 200.8 831.2h319.7m0 64H200.8c-66 0-120-54-120-120v-901.7h559.7V775.2c0 66-54 120-120 120zM862.6 576c14.3 0 26-11.7 26-26v-613.9H639.9V576h222.7m0 64H575.9v-767.9h376.6V550c0.1 49.8-40.2 90-89.9 90zM500.7 640.2h-148c-6.6 0-12-5.4-12-12v-40c0-6.6 5.4-12 12-12h148c6.6 0 12 5.4 12 12v40c0 6.6-5.4 12-12 12zM500.7 447.5h-148c-6.6 0-12-5.4-12-12v-40c0-6.6 5.4-12 12-12h148c6.6 0 12 5.4 12 12v40c0 6.6-5.4 12-12 12zM500.7 256.1h-148c-6.6 0-12-5.4-12-12v-40c0-6.6 5.4-12 12-12h148c6.6 0 12 5.4 12 12v40c0 6.6-5.4 12-12 12zM818.9 447.5h-118c-6.6 0-12-5.4-12-12v-40c0-6.6 5.4-12 12-12h118c6.6 0 12 5.4 12 12v40c0 6.6-5.4 12-12 12zM818.9 256.1h-118c-6.6 0-12-5.4-12-12v-40c0-6.6 5.4-12 12-12h118c6.6 0 12 5.4 12 12v40c0 6.6-5.4 12-12 12zM1012-64H12c-6.6 0-12-5.4-12-12v-40c0-6.6 5.4-12 12-12h1000c6.6 0 12 5.4 12 12v40c0 6.6-5.4 12-12 12z"  horiz-adv-x="1024" />

    
    <glyph glyph-name="drag" unicode="&#59176;" d="M966.057143 390.514286L820.228571 505.6a8.262857 8.262857 0 0 1-13.371428-6.514286V425.142857H553.142857V678.857143h74.057143c6.857143 0 10.742857 8 6.514286 13.371428L518.514286 838.057143a8.16 8.16 0 0 1-12.914286 0L390.4 692.228571a8.262857 8.262857 0 0 1 6.514286-13.371428H470.857143v-253.714286H217.142857v74.057143c0 6.857143-8 10.742857-13.371428 6.514286L57.942857 390.514286a8.16 8.16 0 0 1 0-12.914286l145.714286-115.2c5.371429-4.228571 13.371429-0.457143 13.371428 6.514286V342.857143h253.714286v-253.714286h-74.057143c-6.857143 0-10.742857-8-6.514285-13.371428l115.2-145.714286c3.314286-4.228571 9.714286-4.228571 12.914285 0l115.2 145.714286c4.228571 5.371429 0.457143 13.371429-6.514285 13.371428H553.142857V342.857143h253.714286v-74.057143c0-6.857143 8-10.742857 13.371428-6.514286l145.714286 115.2a8.342857 8.342857 0 0 1 0.114286 13.028572z"  horiz-adv-x="1024" />

    
    <glyph glyph-name="drag1" unicode="&#58952;" d="M469.333333 640a85.333333 85.333333 0 1 0-85.333333 85.333333 85.333333 85.333333 0 0 0 85.333333-85.333333z m-85.333333-170.666667a85.333333 85.333333 0 1 1 85.333333-85.333333 85.333333 85.333333 0 0 1-85.333333 85.333333z m0-256a85.333333 85.333333 0 1 1 85.333333-85.333333 85.333333 85.333333 0 0 1-85.333333 85.333333z m256 341.333334a85.333333 85.333333 0 1 1-85.333333 85.333333 85.333333 85.333333 0 0 1 85.333333-85.333333z m0-85.333334a85.333333 85.333333 0 1 1 85.333333-85.333333 85.333333 85.333333 0 0 1-85.333333 85.333333z m0-256a85.333333 85.333333 0 1 1 85.333333-85.333333 85.333333 85.333333 0 0 1-85.333333 85.333333z"  horiz-adv-x="1024" />

    
    <glyph glyph-name="qiyongjinyong" unicode="&#58913;" d="M870.4 742.4c197.632 0 358.4-160.768 358.4-358.4s-160.768-358.4-358.4-358.4H358.4c-197.632 0-358.4 160.768-358.4 358.4s160.768 358.4 358.4 358.4h512z m0-102.4H358.4c-141.1584 0-256-114.8416-256-256s114.8416-256 256-256h512c141.1584 0 256 114.8416 256 256s-114.8416 256-256 256z m0-102.4a153.6 153.6 0 1 0 0-307.2 153.6 153.6 0 0 0 0 307.2z"  horiz-adv-x="1228" />

    
    <glyph glyph-name="zhongzhimima" unicode="&#58914;" d="M512 896a307.2 307.2 0 0 0 307.2-307.2h-102.4a204.8 204.8 0 1 1-409.6 0v-102.4h512a102.4 102.4 0 0 0 102.4-102.4v-409.6a102.4 102.4 0 0 0-102.4-102.4H204.8a102.4 102.4 0 0 0-102.4 102.4v409.6a102.4 102.4 0 0 0 102.4 102.4V588.8a307.2 307.2 0 0 0 307.2 307.2z m307.2-512H204.8v-409.6h614.4v409.6z m-76.8-153.6a25.6 25.6 0 0 0 25.6-25.6v-51.2a25.6 25.6 0 0 0-25.6-25.6h-51.2a25.6 25.6 0 0 0-25.6 25.6v51.2a25.6 25.6 0 0 0 25.6 25.6h51.2z m-204.8 0a25.6 25.6 0 0 0 25.6-25.6v-51.2a25.6 25.6 0 0 0-25.6-25.6h-51.2a25.6 25.6 0 0 0-25.6 25.6v51.2a25.6 25.6 0 0 0 25.6 25.6h51.2z m-204.8 0a25.6 25.6 0 0 0 25.6-25.6v-51.2a25.6 25.6 0 0 0-25.6-25.6h-51.2a25.6 25.6 0 0 0-25.6 25.6v51.2a25.6 25.6 0 0 0 25.6 25.6h51.2z"  horiz-adv-x="1024" />

    
    <glyph glyph-name="tianjia" unicode="&#58915;" d="M512 793.6a51.2 51.2 0 0 0 51.2-51.2v-307.2h307.2a51.2 51.2 0 0 0 50.8416-45.2096L921.6 384a51.2 51.2 0 0 0-51.2-51.2h-307.2v-307.2a51.2 51.2 0 0 0-45.2096-50.8416L512-25.6a51.2 51.2 0 0 0-51.2 51.2v307.2H153.6a51.2 51.2 0 0 0-50.8416 45.2096L102.4 384a51.2 51.2 0 0 0 51.2 51.2h307.2V742.4a51.2 51.2 0 0 0 45.2096 50.8416z"  horiz-adv-x="1024" />

    
    <glyph glyph-name="quanxianguanli" unicode="&#58916;" d="M540.444444 640a142.222222 142.222222 0 0 0 142.08-136.049778L682.666667 497.777778v-113.777778h28.444444v-142.222222a113.777778 113.777778 0 0 0-113.777778-113.777778h-142.222222a113.777778 113.777778 0 0 0-113.777778 113.777778v142.222222h284.444445v113.777778a85.333333 85.333333 0 0 1-80.327111 85.191111L540.444444 583.111111h-28.444444a85.333333 85.333333 0 0 1-85.333333-85.333333 28.444444 28.444444 0 0 0-56.888889 0 142.222222 142.222222 0 0 0 136.049778 142.08L512 640h28.444444z"  horiz-adv-x="1024" />

    
    <glyph glyph-name="jigouguanli" unicode="&#58917;" d="M568.888889 640a56.888889 56.888889 0 0 0 56.888889-56.888889v-56.888889a56.888889 56.888889 0 0 0-56.888889-56.888889h-28.444445v-56.888889h66.360889c41.557333 0 73.415111-36.408889 75.719111-80.241777L682.666667 327.111111v-28.444444h28.444444a56.888889 56.888889 0 0 0 56.888889-56.888889v-56.888889a56.888889 56.888889 0 0 0-56.888889-56.888889h-113.777778a56.888889 56.888889 0 0 0-56.888889 56.888889v56.888889a56.888889 56.888889 0 0 0 56.888889 56.888889h28.444445v28.444444c0 15.445333-8.305778 26.624-16.839111 28.245333L606.805333 355.555556h-189.610666c-9.216 0-18.972444-11.690667-18.972445-28.444445v-28.444444h28.444445a56.888889 56.888889 0 0 0 56.888889-56.888889v-56.888889a56.888889 56.888889 0 0 0-56.888889-56.888889h-113.777778a56.888889 56.888889 0 0 0-56.888889 56.888889v56.888889a56.888889 56.888889 0 0 0 56.888889 56.888889h28.444444v28.444444c0 44.373333 30.321778 82.403556 71.111111 85.162667l4.750223 0.170666H483.555556v56.888889h-28.444445a56.888889 56.888889 0 0 0-56.888889 56.888889v56.888889a56.888889 56.888889 0 0 0 56.888889 56.888889h113.777778z"  horiz-adv-x="1024" />

    
    <glyph glyph-name="zhanghaoguanli" unicode="&#58918;" d="M682.666667 270.222222a56.888889 56.888889 0 1 0 0-113.777778h-142.222223a56.888889 56.888889 0 1 0 0 113.777778h142.222223zM611.555556 640c70.684444 0 128-70.030222 128-156.444444S682.24 327.111111 611.555556 327.111111 483.555556 397.141333 483.555556 483.555556 540.871111 640 611.555556 640zM398.222222 412.444444a28.444444 28.444444 0 0 0 0-56.888888h-113.777778a28.444444 28.444444 0 0 0 0 56.888888h113.777778z m0 85.333334a28.444444 28.444444 0 0 0 0-56.888889h-113.777778a28.444444 28.444444 0 0 0 0 56.888889h113.777778z m0 85.333333a28.444444 28.444444 0 0 0 0-56.888889h-113.777778a28.444444 28.444444 0 0 0 0 56.888889h113.777778z"  horiz-adv-x="1024" />

    
    <glyph glyph-name="tongzhi" unicode="&#58919;" d="M455.111111 156.444444h113.777778a56.888889 56.888889 0 1 0-113.777778 0zM731.306667 278.471111l-23.608889 23.608889a85.333333 85.333333 0 0 0-25.031111 60.302222V440.888889a170.666667 170.666667 0 0 1-34.133334 102.4l-25.6 34.133333a85.333333 85.333333 0 0 1-68.266666 34.133334H540.444444V654.222222a14.222222 14.222222 0 0 1-14.222222 14.222222h-28.444444a14.222222 14.222222 0 0 1-14.222222-14.222222V611.555556h-14.222223a85.333333 85.333333 0 0 1-68.266666-34.133334l-25.6-34.133333A170.666667 170.666667 0 0 1 341.333333 440.888889v-78.506667a85.333333 85.333333 0 0 0-25.031111-60.302222l-23.608889-23.608889a28.444444 28.444444 0 0 1-8.248889-19.911111V241.777778a28.444444 28.444444 0 0 1 28.444445-28.444445h398.222222a28.444444 28.444444 0 0 1 28.444445 28.444445v16.782222a28.444444 28.444444 0 0 1-8.248889 19.911111z"  horiz-adv-x="1024" />

    
    <glyph glyph-name="renyuanyidong" unicode="&#58920;" d="M583.111111 497.777778a199.111111 199.111111 0 1 0 0-398.222222 199.111111 199.111111 0 0 0 0 398.222222z m86.101333-227.555556h-170.666666l-3.242667-0.170666c-23.324444-2.474667-33.678222-31.345778-17.208889-48.071112l2.417778-2.190222 46.819556-38.4 2.901333-2.076444a28.444444 28.444444 0 0 1 42.837333 30.520889L572.017778 213.333333h97.194666l3.328 0.199111A28.444444 28.444444 0 0 1 669.212444 270.222222zM327.111111 298.666667c0-40.874667 9.585778-79.530667 26.624-113.806223L298.666667 184.888889a56.888889 56.888889 0 1 0 0 113.777778h28.444444z m272.327111 105.472a28.444444 28.444444 0 0 1-5.347555-26.794667l1.251555-3.271111h-96.853333l-3.299556-0.199111a28.444444 28.444444 0 0 1 0-56.519111l3.299556-0.170667h170.666667l3.242666 0.170667c23.210667 2.446222 33.621333 31.032889 17.436445 47.843555l-2.389334 2.218667-47.928889 40.220444-2.844444 2.133334a28.444444 28.444444 0 0 1-37.233778-5.632zM369.777778 668.444444c63.032889 0 115.456-55.722667 126.037333-129.052444a256.540444 256.540444 0 0 1-160.938667-177.92C281.116444 380.017778 241.777778 440.376889 241.777778 512 241.777778 598.414222 299.093333 668.444444 369.777778 668.444444z"  horiz-adv-x="1024" />

    
    <glyph glyph-name="jichushezhi" unicode="&#58921;" d="M742.4 314.112l-20.48 16.896a51.2 51.2 0 0 0-18.432 41.984V384v11.008a51.2 51.2 0 0 0 18.432 41.984l20.48 16.896a25.6 25.6 0 0 1 6.144 32.512l-29.696 51.2a25.6 25.6 0 0 1-30.976 11.008l-25.6-9.216a51.2 51.2 0 0 0-45.568 4.864 140.288 140.288 0 0 1-18.944 11.008 51.2 51.2 0 0 0-27.136 37.12l-4.352 25.6a25.6 25.6 0 0 1-25.6 21.504h-58.88a25.6 25.6 0 0 1-25.6-21.504l-4.352-25.6a51.2 51.2 0 0 0-26.112-37.12c-6.599111-3.157333-12.913778-6.826667-18.944-11.008a51.2 51.2 0 0 0-45.568-4.864l-25.6 9.216a25.6 25.6 0 0 1-30.464-11.008l-29.696-51.2a25.6 25.6 0 0 1 6.144-32.512l20.48-16.896a51.2 51.2 0 0 0 18.432-41.984v-22.016a51.2 51.2 0 0 0-18.432-41.984l-20.48-16.896a25.6 25.6 0 0 1-6.144-32.512l29.696-51.2a25.6 25.6 0 0 1 30.976-11.008l25.6 9.216a51.2 51.2 0 0 0 45.568-4.864c6.030222-4.152889 12.344889-7.850667 18.944-11.008 14.392889-7.395556 24.462222-21.162667 27.136-37.12l4.352-25.6a25.6 25.6 0 0 1 25.6-21.504h58.88a25.6 25.6 0 0 1 25.6 21.504l4.352 25.6a51.2 51.2 0 0 0 27.136 37.12c6.599111 3.157333 12.913778 6.826667 18.944 11.008a51.2 51.2 0 0 0 45.568 4.864l25.6-9.216a25.6 25.6 0 0 1 29.44 11.008l29.696 51.2a25.6 25.6 0 0 1-6.144 32.512zM512 307.2a76.8 76.8 0 1 0 0 153.6 76.8 76.8 0 0 0 0-153.6z"  horiz-adv-x="1024" />

    
    <glyph glyph-name="closed" unicode="&#58899;" d="M811.818 600h82.183a8 8 0 0 0 5.968-13.327L535.862 178.69000000000005c-0.803-0.9-1.657-1.754-2.557-2.558-13.178-11.772-33.4-10.626-45.167 2.558L124.031 586.673A8 8 0 0 0 129.999 600h82.183a16 16 0 0 0 11.937-5.346L512 272.082l287.88 322.572A16 16 0 0 0 811.819 600z"  horiz-adv-x="1024" />

    
    <glyph glyph-name="show" unicode="&#58905;" d="M811.818 168h82.183a8 8 0 0 1 5.968 13.327L535.862 589.31a31.996 31.996 0 0 1-2.557 2.558c-13.178 11.772-33.4 10.626-45.167-2.558L124.031 181.327A8 8 0 0 1 129.999 168h82.183a16 16 0 0 1 11.937 5.346L512 495.918l287.88-322.572A16 16 0 0 1 811.819 168z"  horiz-adv-x="1024" />

    


  </font>
</defs>
</svg>
